<svg width="30" height="30" viewBox="0 0 30 30" fill="none" xmlns="http://www.w3.org/2000/svg">
<path d="M26.8575 22.2098H24.4554C24.2914 22.2098 24.1377 22.2816 24.0352 22.408C23.796 22.6984 23.5397 22.9786 23.2698 23.2451C22.1658 24.3503 20.8581 25.231 19.4189 25.8386C17.928 26.4683 16.3255 26.7913 14.7071 26.7885C13.0704 26.7885 11.4849 26.4673 9.99516 25.8386C8.55605 25.231 7.24832 24.3503 6.14433 23.2451C5.03834 22.1437 4.15645 20.8383 3.54749 19.4011C2.91537 17.9114 2.5976 16.3294 2.5976 14.6927C2.5976 13.056 2.91878 11.474 3.54749 9.9842C4.1557 8.54569 5.03042 7.25069 6.14433 6.1402C7.25823 5.02971 8.55323 4.15499 9.99516 3.54678C11.4849 2.91807 13.0704 2.59689 14.7071 2.59689C16.3437 2.59689 17.9292 2.91466 19.4189 3.54678C20.8609 4.15499 22.1559 5.02971 23.2698 6.1402C23.5397 6.41014 23.7926 6.69032 24.0352 6.97734C24.1377 7.10376 24.2948 7.17552 24.4554 7.17552H26.8575C27.0728 7.17552 27.206 6.93634 27.0864 6.75524C24.4657 2.68231 19.8802 -0.0136158 14.6695 5.17271e-05C6.4826 0.0205531 -0.0812452 6.6664 0.000760102 14.843C0.0827654 22.8898 6.63636 29.3853 14.7071 29.3853C19.9041 29.3853 24.4691 26.6928 27.0864 22.6301C27.2026 22.449 27.0728 22.2098 26.8575 22.2098ZM29.8951 14.4774L25.0466 10.6505C24.8655 10.507 24.6024 10.6368 24.6024 10.8658V13.4626H13.8733C13.723 13.4626 13.6 13.5856 13.6 13.7359V15.6494C13.6 15.7997 13.723 15.9228 13.8733 15.9228H24.6024V18.5196C24.6024 18.7485 24.8689 18.8784 25.0466 18.7349L29.8951 14.9079C29.9278 14.8824 29.9542 14.8497 29.9724 14.8124C29.9906 14.7751 30 14.7342 30 14.6927C30 14.6512 29.9906 14.6102 29.9724 14.5729C29.9542 14.5357 29.9278 14.503 29.8951 14.4774Z" fill="#F8F8F8"/>
</svg>
