<svg width="100" height="100" viewBox="0 0 100 100" fill="none" xmlns="http://www.w3.org/2000/svg">
<path fill-rule="evenodd" clip-rule="evenodd" d="M0 50C0 22.385 22.385 0 50 0C77.615 0 100 22.385 100 50C100 77.615 77.615 100 50 100C22.385 100 0 77.615 0 50ZM50 10C39.3913 10 29.2172 14.2143 21.7157 21.7157C14.2143 29.2172 10 39.3913 10 50C10 60.6087 14.2143 70.7828 21.7157 78.2843C29.2172 85.7857 39.3913 90 50 90C60.6087 90 70.7828 85.7857 78.2843 78.2843C85.7857 70.7828 90 60.6087 90 50C90 39.3913 85.7857 29.2172 78.2843 21.7157C70.7828 14.2143 60.6087 10 50 10Z" fill="black"/>
<path fill-rule="evenodd" clip-rule="evenodd" d="M55 25C55 23.6739 54.4732 22.4021 53.5355 21.4645C52.5979 20.5268 51.3261 20 50 20C48.6739 20 47.4022 20.5268 46.4645 21.4645C45.5268 22.4021 45 23.6739 45 25V45H25C23.6739 45 22.4021 45.5268 21.4645 46.4645C20.5268 47.4021 20 48.6739 20 50C20 51.3261 20.5268 52.5978 21.4645 53.5355C22.4021 54.4732 23.6739 55 25 55H45V75C45 76.3261 45.5268 77.5978 46.4645 78.5355C47.4022 79.4732 48.6739 80 50 80C51.3261 80 52.5979 79.4732 53.5355 78.5355C54.4732 77.5978 55 76.3261 55 75V55H75C76.3261 55 77.5979 54.4732 78.5355 53.5355C79.4732 52.5978 80 51.3261 80 50C80 48.6739 79.4732 47.4021 78.5355 46.4645C77.5979 45.5268 76.3261 45 75 45H55V25Z" fill="black"/>
</svg>
