<svg width="100" height="100" viewBox="0 0 100 100" fill="none" xmlns="http://www.w3.org/2000/svg">
<path fill-rule="evenodd" clip-rule="evenodd" d="M0 50C0 22.385 22.385 0 50 0C77.615 0 100 22.385 100 50C100 77.615 77.615 100 50 100C22.385 100 0 77.615 0 50ZM50 10C39.3913 10 29.2172 14.2143 21.7157 21.7157C14.2143 29.2172 10 39.3913 10 50C10 60.6087 14.2143 70.7828 21.7157 78.2843C29.2172 85.7857 39.3913 90 50 90C60.6087 90 70.7828 85.7857 78.2843 78.2843C85.7857 70.7828 90 60.6087 90 50C90 39.3913 85.7857 29.2172 78.2843 21.7157C70.7828 14.2143 60.6087 10 50 10Z" fill="black"/>
<path d="M50 10C39.3913 10 29.2172 14.2143 21.7157 21.7157C14.2143 29.2172 10 39.3913 10 50C10 60.6087 14.2143 70.7828 21.7157 78.2843C29.2172 85.7857 39.3913 90 50 90C60.6087 90 70.7828 85.7857 78.2843 78.2843C85.7857 70.7828 90 60.6087 90 50C90 39.3913 85.7857 29.2172 78.2843 21.7157C70.7828 14.2143 60.6087 10 50 10Z" fill="black"/>
<path d="M45 45.5H45.5V45V25C45.5 23.8065 45.9741 22.6619 46.818 21.818C47.6619 20.9741 48.8065 20.5 50 20.5C51.1935 20.5 52.3381 20.9741 53.182 21.818C54.0259 22.6619 54.5 23.8065 54.5 25V45V45.5H55H75C76.1935 45.5 77.3381 45.9741 78.182 46.818C79.0259 47.6619 79.5 48.8065 79.5 50C79.5 51.1935 79.0259 52.3381 78.182 53.182C77.3381 54.0259 76.1935 54.5 75 54.5H55H54.5V55V75C54.5 76.1935 54.0259 77.3381 53.182 78.182C52.3381 79.0259 51.1935 79.5 50 79.5C48.8065 79.5 47.6619 79.0259 46.818 78.182C45.9741 77.3381 45.5 76.1935 45.5 75V55V54.5H45H25C23.8065 54.5 22.6619 54.0259 21.818 53.182C20.9741 52.3381 20.5 51.1935 20.5 50C20.5 48.8065 20.9741 47.6619 21.818 46.818C22.6619 45.9741 23.8065 45.5 25 45.5H45Z" fill="white"/>
<path d="M45 45.5H45.5V45V25C45.5 23.8065 45.9741 22.6619 46.818 21.818C47.6619 20.9741 48.8065 20.5 50 20.5C51.1935 20.5 52.3381 20.9741 53.182 21.818C54.0259 22.6619 54.5 23.8065 54.5 25V45V45.5H55H75C76.1935 45.5 77.3381 45.9741 78.182 46.818C79.0259 47.6619 79.5 48.8065 79.5 50C79.5 51.1935 79.0259 52.3381 78.182 53.182C77.3381 54.0259 76.1935 54.5 75 54.5H55H54.5V55V75C54.5 76.1935 54.0259 77.3381 53.182 78.182C52.3381 79.0259 51.1935 79.5 50 79.5C48.8065 79.5 47.6619 79.0259 46.818 78.182C45.9741 77.3381 45.5 76.1935 45.5 75V55V54.5H45H25C23.8065 54.5 22.6619 54.0259 21.818 53.182C20.9741 52.3381 20.5 51.1935 20.5 50C20.5 48.8065 20.9741 47.6619 21.818 46.818C22.6619 45.9741 23.8065 45.5 25 45.5H45Z" stroke="black"/>
<path d="M45 45.5H45.5V45V25C45.5 23.8065 45.9741 22.6619 46.818 21.818C47.6619 20.9741 48.8065 20.5 50 20.5C51.1935 20.5 52.3381 20.9741 53.182 21.818C54.0259 22.6619 54.5 23.8065 54.5 25V45V45.5H55H75C76.1935 45.5 77.3381 45.9741 78.182 46.818C79.0259 47.6619 79.5 48.8065 79.5 50C79.5 51.1935 79.0259 52.3381 78.182 53.182C77.3381 54.0259 76.1935 54.5 75 54.5H55H54.5V55V75C54.5 76.1935 54.0259 77.3381 53.182 78.182C52.3381 79.0259 51.1935 79.5 50 79.5C48.8065 79.5 47.6619 79.0259 46.818 78.182C45.9741 77.3381 45.5 76.1935 45.5 75V55V54.5H45H25C23.8065 54.5 22.6619 54.0259 21.818 53.182C20.9741 52.3381 20.5 51.1935 20.5 50C20.5 48.8065 20.9741 47.6619 21.818 46.818C22.6619 45.9741 23.8065 45.5 25 45.5H45Z" stroke="black" stroke-opacity="0.2"/>
</svg>
